<?xml version="1.0" standalone="no"?>
<!DOCTYPE svg PUBLIC "-//W3C//DTD SVG 20010904//EN"
 "http://www.w3.org/TR/2001/REC-SVG-20010904/DTD/svg10.dtd">
<svg version="1.0" xmlns="http://www.w3.org/2000/svg"
 width="260.000000pt" height="260.000000pt" viewBox="0 0 260.000000 260.000000"
 preserveAspectRatio="xMidYMid meet">
<metadata>
Created by potrace 1.14, written by Peter Selinger 2001-2017
</metadata>
<g transform="translate(0.000000,260.000000) scale(0.100000,-0.100000)"
fill="#000000" stroke="none">
<path d="M1438 2365 c-155 -42 -303 -165 -434 -361 -77 -115 -133 -219 -234
-439 -43 -93 -145 -387 -186 -540 -52 -186 -93 -358 -89 -365 10 -16 115 -59
195 -79 150 -38 334 -55 605 -55 264 0 446 14 580 44 100 23 207 63 218 82 8
13 -70 266 -109 355 -8 17 -14 35 -14 39 0 10 -62 177 -178 479 -28 72 -75
194 -106 273 -63 161 -70 206 -31 224 21 10 30 8 53 -9 38 -28 59 -76 65 -155
9 -104 33 -137 103 -138 62 0 98 42 131 154 56 185 -22 376 -184 452 -108 51
-278 69 -385 39z m-268 -795 c17 -16 40 -30 50 -30 26 0 26 -22 0 -45 -11 -10
-20 -31 -20 -47 0 -27 -1 -28 -39 -22 -24 4 -41 2 -45 -5 -4 -6 -16 -11 -26
-11 -16 0 -19 5 -13 30 4 24 0 36 -17 55 -26 28 -21 40 18 48 17 4 33 16 40
31 6 14 14 26 16 26 3 0 19 -13 36 -30z m400 -237 c0 -8 -15 -20 -32 -28 -77
-32 -135 -132 -123 -211 8 -57 58 -132 98 -149 79 -33 70 -65 -19 -65 -146 0
-266 145 -234 283 23 96 104 174 195 187 61 8 115 0 115 -17z m-566 -219 c9
-8 16 -20 16 -25 0 -5 4 -9 9 -9 5 0 22 -5 37 -10 l27 -11 -22 -22 c-12 -14
-21 -36 -21 -56 0 -32 0 -33 -38 -26 -21 3 -51 1 -66 -5 -28 -10 -28 -10 -24
20 3 23 -2 38 -19 57 -26 28 -22 39 17 45 15 2 30 14 38 31 15 31 24 33 46 11z"/>
<path d="M2144 546 c-92 -52 -247 -94 -444 -118 -160 -20 -671 -16 -830 6
-177 24 -308 59 -402 107 -21 11 -44 19 -51 19 -25 0 -47 -47 -47 -100 0 -46
4 -54 43 -93 72 -73 231 -114 549 -141 224 -20 452 -20 676 0 208 18 306 34
422 71 68 21 93 35 127 70 40 40 43 46 43 98 0 51 -20 105 -39 105 -3 0 -24
-11 -47 -24z"/>
</g>
</svg>
